<svg width="28" height="28" viewBox="0 0 28 28" fill="none" xmlns="http://www.w3.org/2000/svg">
<g clip-path="url(#clip0_112_109)">
<path d="M14.2 27.8C21.7663 27.8 27.9 21.6663 27.9 14.1C27.9 6.53369 21.7663 0.399994 14.2 0.399994C6.6337 0.399994 0.5 6.53369 0.5 14.1C0.5 21.6663 6.6337 27.8 14.2 27.8Z" fill="#043E72"/>
<path d="M14.1991 27.9987C6.54378 27.9987 0.298646 21.514 0.500102 13.5883C0.701558 6.07425 6.84596 -0.101664 14.4006 0.00126829C21.9552 0.1042 28.0996 6.48597 27.9988 14.4117C27.7974 21.9258 21.7537 28.1017 14.1991 27.9987ZM12.6882 21.3082C11.9831 21.1023 11.3787 20.8964 10.6736 20.5876C9.36416 20.073 8.55834 19.0437 8.35688 17.6026C8.15543 16.6762 8.25616 15.7498 8.35688 14.8235C8.45761 14 8.65907 13.2795 9.26344 12.6619V12.456C9.06198 11.6326 9.06198 10.8091 9.26344 9.98566C9.36416 9.67686 9.46489 9.67686 9.66635 9.77979C10.17 9.98566 10.6736 10.2945 11.0765 10.7062C11.278 10.912 11.4795 11.2208 11.6809 11.4267C12.7889 10.7062 16.1129 10.7062 17.3217 11.4267C17.5231 11.1179 17.7246 10.912 18.0268 10.6032C18.4297 10.1915 18.8326 9.88273 19.3362 9.77979C19.5377 9.77979 19.6384 9.77979 19.6384 9.98566C19.9406 10.8091 19.9406 11.6326 19.6384 12.456C19.5377 12.6619 19.5377 12.7648 19.7391 12.8677C20.1421 13.2795 20.3435 13.6912 20.4442 14.2059C20.6457 15.1322 20.7464 16.1616 20.6457 17.1909C20.545 18.2202 20.1421 19.1466 19.437 19.97C18.8326 20.5876 18.0268 20.9994 17.2209 21.2052C16.9188 21.3082 16.6166 21.3082 16.3144 21.4111C16.7173 22.0287 16.818 22.7492 16.818 23.5727C16.818 24.3961 16.818 25.2196 16.818 26.043C16.818 26.146 16.818 26.2489 16.818 26.3518C21.8544 25.4254 26.8908 20.2788 26.3872 13.1765C25.6821 6.17718 19.8399 1.03059 13.0911 1.64818C6.74524 2.26577 1.70884 8.02995 2.31321 15.0293C2.81685 21.617 8.0547 25.6313 12.1845 26.146C12.1845 25.6313 12.1845 25.2196 12.1845 24.7049C11.9831 24.7049 11.7816 24.8078 11.5802 24.8078C10.0693 25.0137 8.96125 24.2932 8.25616 22.9551C7.85324 22.2345 7.55106 21.514 6.84596 20.9994C6.74524 20.9994 6.74524 20.8964 6.64451 20.7935C6.74524 20.7935 6.74524 20.6906 6.74524 20.6906H6.84596C7.34961 20.6906 7.85325 20.7935 8.15543 21.1023C8.35688 21.3082 8.65907 21.617 8.7598 21.9258C9.46489 23.058 10.6736 23.4697 11.8824 23.1609C12.0838 23.1609 12.1845 23.058 12.1845 22.8521C12.2853 22.2345 12.386 21.7199 12.6882 21.3082Z" fill="white"/>
</g>
<defs>
<clipPath id="clip0_112_109">
<rect width="28" height="28" fill="white"/>
</clipPath>
</defs>
</svg>
