<svg width="28" height="28" viewBox="0 0 28 28" fill="none" xmlns="http://www.w3.org/2000/svg">
<g clip-path="url(#clip0_112_108)">
<circle cx="14" cy="14" r="13" fill="#043E72"/>
<path d="M14.1641 27.7375C6.58442 27.7758 0.366448 21.4758 0.541448 13.7867C0.70551 6.4586 6.78129 0.388288 14.3446 0.475788C21.8149 0.563288 27.9836 6.78673 27.7868 14.4758C27.6008 21.7711 21.5852 27.7703 14.1641 27.7375ZM2.19848 14.1203C2.25864 20.9727 7.79848 26.2391 14.35 26.1406C20.7047 26.0422 26.1188 20.8688 26.1243 14.1094C26.1243 7.26251 20.5407 1.96876 13.9727 2.07813C7.60707 2.18204 2.24223 7.36641 2.19848 14.1203Z" fill="white"/>
<path d="M17.861 20.5406C17.861 20.4203 17.861 20.3164 17.861 20.207C17.861 18.7469 17.8665 17.2922 17.8555 15.832C17.8555 15.5805 17.8337 15.318 17.7735 15.0774C17.5766 14.268 16.9204 13.8633 15.9743 13.9399C15.2743 13.9945 14.6454 14.618 14.5962 15.3399C14.5634 15.7774 14.5743 16.2149 14.5688 16.6524C14.5634 17.8391 14.5688 19.0203 14.5688 20.207C14.5688 20.3164 14.5688 20.4203 14.5688 20.5461C13.6829 20.5461 12.8188 20.5461 11.9384 20.5461C11.9384 17.7024 11.9384 14.8531 11.9384 11.993C12.7969 11.993 13.6555 11.993 14.5469 11.993C14.5469 12.3266 14.5469 12.6656 14.5469 13.0758C14.6399 12.9664 14.6946 12.9117 14.7329 12.8461C15.9141 11.0742 19.1188 11.2656 20.0704 13.3547C20.3329 13.9344 20.4915 14.5414 20.4969 15.1758C20.5134 16.9313 20.5079 18.6922 20.5079 20.4531C20.5079 20.4805 20.5024 20.5078 20.4915 20.5516C19.6274 20.5406 18.7579 20.5406 17.861 20.5406Z" fill="white"/>
<path d="M10.254 20.5516C9.37351 20.5516 8.52039 20.5516 7.64539 20.5516C7.64539 17.7133 7.64539 14.886 7.64539 12.0422C8.51492 12.0422 9.37351 12.0422 10.254 12.0422C10.254 14.8695 10.254 17.6969 10.254 20.5516Z" fill="white"/>
<path d="M8.87035 10.336C8.08832 10.3305 7.54145 9.76174 7.54692 8.97424C7.55238 8.18674 8.12113 7.64533 8.93598 7.6508C9.71254 7.65627 10.2758 8.23049 10.2649 9.01252C10.2649 9.78908 9.67973 10.3414 8.87035 10.336Z" fill="white"/>
</g>
<defs>
<clipPath id="clip0_112_108">
<rect width="28" height="28" fill="white"/>
</clipPath>
</defs>
</svg>
