<svg width="29" height="29" viewBox="0 0 29 29" fill="none" xmlns="http://www.w3.org/2000/svg">
<path d="M14.6723 0.601497C22.4457 0.562181 28.843 7.02688 28.6576 14.9294C28.4891 22.4613 22.2491 28.6957 14.4757 28.6002C6.80344 28.5048 0.473537 22.1131 0.675734 14.2217C0.866698 6.72359 7.05057 0.567797 14.6723 0.601497ZM2.37756 14.6205C2.44496 21.6581 8.15143 27.0781 14.8913 26.9546C21.4234 26.8366 26.9502 21.5065 26.9446 14.5924C26.9446 7.54923 21.1875 2.11236 14.4308 2.24154C7.89306 2.37073 2.41688 7.70649 2.37756 14.6205Z" fill="white"/>
<circle cx="14.5" cy="14.5" r="12.5" fill="#043E72"/>
<path d="M22.6984 8.56586C22.6984 12.5593 22.6984 16.5358 22.6984 20.5292C17.357 20.5292 12.0156 20.5292 6.65741 20.5292C6.65741 16.5527 6.65741 12.5705 6.65741 8.56586C11.9876 8.56586 17.3289 8.56586 22.6984 8.56586ZM14.7116 15.8731C14.3353 15.5585 13.9758 15.2721 13.6388 14.9632C13.4816 14.8171 13.3805 14.8284 13.2176 14.9575C11.8977 16.0303 10.5666 17.0919 9.24666 18.1646C9.17365 18.2208 9.12871 18.35 9.1231 18.4455C9.11186 18.9959 9.12871 19.5519 9.11186 20.1023C9.10063 20.3607 9.17926 20.4337 9.43763 20.4281C12.9873 20.4169 16.5314 20.4225 20.0811 20.4225C20.1766 20.4225 20.2777 20.4225 20.39 20.4225C20.39 19.6586 20.3956 18.9341 20.3844 18.2152C20.3844 18.1478 20.3338 18.0523 20.272 18.013C18.8061 16.9683 17.3289 15.9236 15.8518 14.8789C15.4755 15.2103 15.1048 15.5304 14.7116 15.8731ZM14.6835 13.5253C16.346 11.9133 17.9805 10.3239 19.6711 8.6838C16.346 8.6838 13.1221 8.6838 9.89819 8.6838C11.4821 10.2845 13.0491 11.874 14.6835 13.5253ZM20.3731 17.6479C20.3731 15.4013 20.3731 13.1995 20.3731 10.9585C18.9353 12.2054 17.5255 13.4242 16.1045 14.6599C17.548 15.6709 18.9465 16.6481 20.3731 17.6479ZM13.1783 14.57C11.8359 13.4298 10.516 12.3065 9.15118 11.1439C9.15118 13.3849 9.15118 15.5585 9.15118 17.7883C10.5104 16.7043 11.8359 15.6428 13.1783 14.57Z" fill="white"/>
</svg>
