<svg width="35" height="35" viewBox="0 0 35 35" fill="none" xmlns="http://www.w3.org/2000/svg">
<circle cx="14.5" cy="14.5" r="13.5" fill="#043E72"/>
<path d="M14.6723 0.601527C22.4457 0.562211 28.843 7.02691 28.6576 14.9295C28.4891 22.4613 22.2491 28.6957 14.4757 28.6003C6.80344 28.5048 0.473537 22.1131 0.675734 14.2218C0.866698 6.72362 7.05057 0.567828 14.6723 0.601527ZM2.37756 14.6206C2.44496 21.6582 8.15143 27.0782 14.8913 26.9546C21.4234 26.8367 26.9502 21.5065 26.9446 14.5925C26.9446 7.54926 21.1875 2.11239 14.4308 2.24157C7.89306 2.37076 2.41688 7.70652 2.37756 14.6206Z" fill="white"/>
<path d="M22.6985 8.56586C22.6985 12.5593 22.6985 16.5358 22.6985 20.5292C17.3571 20.5292 12.0157 20.5292 6.65747 20.5292C6.65747 16.5527 6.65747 12.5705 6.65747 8.56586C11.9876 8.56586 17.329 8.56586 22.6985 8.56586ZM14.7117 15.8731C14.3354 15.5585 13.9759 15.2721 13.6389 14.9632C13.4816 14.8171 13.3805 14.8284 13.2177 14.9575C11.8978 16.0303 10.5666 17.0919 9.24672 18.1646C9.17371 18.2208 9.12877 18.35 9.12316 18.4455C9.11192 18.9959 9.12877 19.5519 9.11192 20.1023C9.10069 20.3607 9.17932 20.4337 9.43769 20.4281C12.9874 20.4169 16.5314 20.4225 20.0811 20.4225C20.1766 20.4225 20.2777 20.4225 20.3901 20.4225C20.3901 19.6586 20.3957 18.9341 20.3844 18.2152C20.3844 18.1478 20.3339 18.0523 20.2721 18.013C18.8062 16.9683 17.329 15.9236 15.8518 14.8789C15.4755 15.2103 15.1048 15.5304 14.7117 15.8731ZM14.6836 13.5253C16.3461 11.9133 17.9805 10.3239 19.6711 8.6838C16.3461 8.6838 13.1222 8.6838 9.89825 8.6838C11.4821 10.2845 13.0492 11.874 14.6836 13.5253ZM20.3732 17.6479C20.3732 15.4013 20.3732 13.1995 20.3732 10.9585C18.9354 12.2054 17.5256 13.4242 16.1046 14.6599C17.5481 15.6709 18.9466 16.6481 20.3732 17.6479ZM13.1783 14.57C11.836 13.4298 10.5161 12.3065 9.15124 11.1439C9.15124 13.3849 9.15124 15.5585 9.15124 17.7883C10.5105 16.7043 11.836 15.6428 13.1783 14.57Z" fill="white"/>
</svg>
